<svg width="24" height="24" viewBox="0 0 24 24" fill="none" xmlns="http://www.w3.org/2000/svg">
<path d="M3.5 20.8431H20.4C20.5326 20.8431 20.6598 20.7904 20.7536 20.6966C20.8473 20.6028 20.9 20.4757 20.9 20.3431C20.9 20.2104 20.8473 20.0833 20.7536 19.9895C20.6598 19.8957 20.5326 19.8431 20.4 19.8431H3.5C3.36739 19.8431 3.24021 19.8957 3.14645 19.9895C3.05268 20.0833 3 20.2104 3 20.3431C3 20.4757 3.05268 20.6028 3.14645 20.6966C3.24021 20.7904 3.36739 20.8431 3.5 20.8431ZM9.662 17.0851C10.0844 16.9668 10.4698 16.7432 10.782 16.4351L20.322 6.89505C20.6487 6.56706 20.8321 6.12299 20.8321 5.66005C20.8321 5.19711 20.6487 4.75304 20.322 4.42505L19.382 3.49505C19.0493 3.17731 18.607 3 18.147 3C17.687 3 17.2447 3.17731 16.912 3.49505L7.372 13.0251C7.06334 13.3352 6.84249 13.7217 6.732 14.1451L5.992 16.9051C5.95689 17.0311 5.95599 17.1643 5.98938 17.2908C6.02277 17.4174 6.08926 17.5327 6.182 17.625C6.32355 17.7642 6.51352 17.8431 6.712 17.8451L9.662 17.0851ZM10.072 15.725C9.88765 15.9127 9.65624 16.0474 9.402 16.115L8.432 16.375L7.432 15.3751L7.692 14.4051C7.76195 14.1518 7.89631 13.9209 8.082 13.7351L8.462 13.3651L10.452 15.3551L10.072 15.725ZM11.162 14.6451L9.172 12.6551L15.902 5.92505L17.892 7.91505L11.162 14.6451ZM19.612 6.19505L18.602 7.20505L16.612 5.21505L17.622 4.19505C17.6915 4.12527 17.7741 4.06989 17.865 4.03211C17.956 3.99433 18.0535 3.97488 18.152 3.97488C18.2505 3.97488 18.348 3.99433 18.439 4.03211C18.5299 4.06989 18.6125 4.12527 18.682 4.19505L19.612 5.13505C19.7515 5.27619 19.8297 5.46662 19.8297 5.66505C19.8297 5.86348 19.7515 6.05391 19.612 6.19505Z" fill="#0B9BD0"/>
</svg>
